<?xml version="1.0" standalone="no"?>
<!DOCTYPE svg PUBLIC "-//W3C//DTD SVG 20010904//EN"
 "http://www.w3.org/TR/2001/REC-SVG-20010904/DTD/svg10.dtd">
<svg version="1.0" xmlns="http://www.w3.org/2000/svg"
 width="260.000000pt" height="260.000000pt" viewBox="0 0 260.000000 260.000000"
 preserveAspectRatio="xMidYMid meet">
<metadata>
Created by potrace 1.11, written by Peter Selinger 2001-2013
</metadata>
<g transform="translate(0.000000,260.000000) scale(0.100000,-0.100000)"
fill="#000000" stroke="none">
<path d="M1115 2544 c-266 -41 -503 -162 -701 -359 -197 -197 -318 -435 -358
-708 -126 -843 598 -1567 1441 -1441 409 60 767 321 953 693 48 96 97 256 114
374 81 544 -198 1079 -692 1326 -220 110 -507 154 -757 115z m75 -966 c0 -332
3 -647 7 -700 l6 -98 -81 0 -82 0 0 83 -1 82 -21 -30 c-39 -53 -86 -93 -145
-121 -52 -25 -69 -28 -158 -29 -88 0 -107 3 -157 27 -112 52 -194 155 -234
293 -21 73 -23 226 -5 305 41 172 154 301 300 344 138 40 300 -1 375 -96 l26
-33 0 288 0 287 85 0 85 0 0 -602z m942 140 c114 -52 197 -159 233 -298 13
-51 16 -92 12 -185 -6 -133 -25 -204 -78 -286 -131 -204 -424 -252 -593 -98
l-56 51 0 -256 0 -256 -85 0 -85 0 0 593 c0 327 -3 628 -6 670 l-7 77 82 0 81
0 0 -82 0 -83 45 52 c84 96 179 135 315 130 66 -2 98 -9 142 -29z"/>
<path d="M664 1596 c-17 -8 -47 -28 -68 -46 -119 -105 -152 -339 -71 -500 98
-195 362 -199 463 -6 24 47 27 62 30 192 4 159 -3 200 -51 270 -46 68 -117
104 -206 104 -36 -1 -80 -7 -97 -14z"/>
<path d="M1834 1594 c-60 -21 -119 -77 -151 -142 -25 -52 -28 -69 -31 -184 -5
-152 10 -213 65 -277 69 -81 186 -112 297 -79 60 18 138 99 167 173 32 85 33
254 1 336 -60 151 -205 224 -348 173z"/>
</g>
</svg>
