<?xml version="1.0" standalone="no"?>
<!DOCTYPE svg PUBLIC "-//W3C//DTD SVG 20010904//EN"
 "http://www.w3.org/TR/2001/REC-SVG-20010904/DTD/svg10.dtd">
<svg version="1.0" xmlns="http://www.w3.org/2000/svg"
 width="260.000000pt" height="260.000000pt" viewBox="0 0 260.000000 260.000000"
 preserveAspectRatio="xMidYMid meet">
<metadata>
Created by potrace 1.11, written by Peter Selinger 2001-2013
</metadata>
<g transform="translate(0.000000,260.000000) scale(0.100000,-0.100000)"
fill="#000000" stroke="none">
<path d="M1089 2544 c-466 -84 -852 -423 -993 -872 -76 -242 -76 -522 0 -764
85 -270 270 -518 503 -673 221 -147 445 -215 711 -215 346 0 657 128 899 371
243 242 371 553 371 899 0 346 -128 657 -371 899 -187 187 -424 310 -686 356
-106 19 -330 18 -434 -1z m101 -1041 c0 -373 3 -688 6 -700 6 -22 4 -23 -69
-23 l-75 0 -8 87 c-5 72 -9 84 -18 69 -69 -121 -228 -192 -374 -166 -223 39
-353 234 -339 510 8 159 50 260 144 352 151 146 393 152 522 13 l41 -45 0 290
0 290 85 0 85 0 0 -677z m855 236 c165 -30 280 -154 320 -345 65 -307 -90
-582 -353 -624 -122 -20 -259 23 -327 102 l-35 42 0 -262 0 -262 -85 0 -85 0
0 670 0 670 69 0 69 0 6 -31 c3 -17 6 -56 6 -86 l0 -54 56 60 c61 66 133 108
211 121 69 11 83 11 148 -1z"/>
<path d="M676 1604 c-66 -21 -136 -92 -167 -170 -20 -51 -24 -76 -24 -184 0
-116 2 -129 28 -185 53 -113 131 -165 247 -165 109 1 189 52 236 155 22 46 24
63 24 205 0 134 -3 161 -21 200 -56 125 -192 186 -323 144z"/>
<path d="M1872 1610 c-85 -18 -177 -101 -206 -187 -22 -63 -22 -293 -1 -353
66 -188 331 -238 460 -87 53 61 77 136 83 249 8 171 -50 299 -160 351 -63 30
-117 38 -176 27z"/>
</g>
</svg>
